<svg width="1440" height="697" viewBox="0 0 1440 697" fill="none" xmlns="http://www.w3.org/2000/svg">
<path d="M-132 699V453C-132 430.909 -114.091 413 -92 413H343C365.091 413 383 430.909 383 453V699" stroke="url(#paint0_linear_75_3)" stroke-width="5"/>
<path d="M968 603V319C968 296.909 985.909 279 1008 279H1443C1465.09 279 1483 296.909 1483 319V603" stroke="url(#paint1_linear_75_3)" stroke-width="5"/>
<path d="M-79 -42H205C227.091 -42 245 -24.0914 245 -2V487C245 509.091 227.091 527 205 527H-79" stroke="url(#paint2_linear_75_3)" stroke-width="5"/>
<defs>
<linearGradient id="paint0_linear_75_3" x1="125.5" y1="320.521" x2="125.5" y2="699" gradientUnits="userSpaceOnUse">
<stop stop-color="#FF0000"/>
<stop offset="1" stop-color="#990000" stop-opacity="0"/>
</linearGradient>
<linearGradient id="paint1_linear_75_3" x1="1225.5" y1="174.233" x2="1225.5" y2="603" gradientUnits="userSpaceOnUse">
<stop stop-color="#FF0000"/>
<stop offset="1" stop-color="#990000" stop-opacity="0"/>
</linearGradient>
<linearGradient id="paint2_linear_75_3" x1="349.767" y1="242.5" x2="-79" y2="242.5" gradientUnits="userSpaceOnUse">
<stop stop-color="#FF0000"/>
<stop offset="1" stop-color="#990000" stop-opacity="0"/>
</linearGradient>
</defs>
</svg>
